<svg width="1035" height="684" viewBox="0 0 1035 684" fill="none" xmlns="http://www.w3.org/2000/svg">
<path fill-rule="evenodd" clip-rule="evenodd" d="M681.285 19.9208C703.147 54.7821 1022.79 578.041 1032.09 604.263C1042.68 634.144 1023.07 658.002 994.573 672.312C974.766 682.266 951.544 683.926 832.204 683.926C712.525 683.926 689.827 682.292 670.716 672.312C653.124 663.128 633.648 635.764 577.377 541.18C518.121 441.57 502.3 419.67 482.419 409.73C465.774 401.735 452.512 400.348 435.65 407.399C416.374 415.46 402.694 433.701 349.532 522.256C247.798 691.688 259.449 683.946 106.31 683.946C47.8368 683.946 0 682.173 0 680.001C0 677.837 46.2122 598.99 102.703 504.798C166.726 398.03 214.682 325.372 230.046 311.866C296.251 253.658 392.356 238.265 465.384 274.176C486.1 284.369 506.427 296.541 522.63 315.027C533.393 327.305 579.811 400.035 625.771 476.644C674.503 557.874 703.895 614.511 721.285 619.07C740.608 624.137 761.867 612.736 766.33 594.913C770.805 574.382 739.335 526.485 599.81 294.156C505.94 137.852 424.19 2.73578 422.672 0C422.672 0 477.446 3.75011e-05 543.253 3.75011e-05H669.529L681.285 19.9208Z" fill="url(#paint0_radial_819_896)"/>
<defs>
<radialGradient id="paint0_radial_819_896" cx="0" cy="0" r="1" gradientUnits="userSpaceOnUse" gradientTransform="translate(517.938 622.616) rotate(108.082) scale(1927.07 6483.74)">
<stop stop-color="white"/>
<stop offset="1" stop-color="white" stop-opacity="0.5"/>
</radialGradient>
</defs>
</svg>

